<svg xmlns="http://www.w3.org/2000/svg" viewBox="0 0 384 512"><!--!Font Awesome Free 6.5.1 by @fontawesome - https://fontawesome.com License - https://fontawesome.com/license/free Copyright 2024 Fonticons, Inc.--><path d="M120 72c0-39.8 32.2-72 72-72s72 32.2 72 72c0 39.8-32.2 72-72 72s-72-32.2-72-72zm254.6 1.4c-12.5-12.5-32.8-12.5-45.3 0L242.7 160H141.3L54.6 73.4c-12.5-12.5-32.8-12.5-45.3 0-12.5 12.5-12.5 32.8 0 45.3L104 213.3V480c0 17.7 14.3 32 32 32h16c17.7 0 32-14.3 32-32V368h16v112c0 17.7 14.3 32 32 32h16c17.7 0 32-14.3 32-32V213.3l94.6-94.6c12.5-12.5 12.5-32.8 0-45.3z"/></svg>