<?xml version="1.0" encoding="UTF-8"?>
<!DOCTYPE svg PUBLIC "-//W3C//DTD SVG 1.1//EN" "http://www.w3.org/Graphics/SVG/1.1/DTD/svg11.dtd">
<!-- Creator: CorelDRAW -->
<svg xmlns="http://www.w3.org/2000/svg" xml:space="preserve" width="33.8666mm" height="8.4666mm" version="1.1" style="shape-rendering:geometricPrecision; text-rendering:geometricPrecision; image-rendering:optimizeQuality; fill-rule:evenodd; clip-rule:evenodd"
viewBox="0 0 3386.66 846.66"
 xmlns:xlink="http://www.w3.org/1999/xlink"
 xmlns:xodm="http://www.corel.com/coreldraw/odm/2003">
 <defs>
  <style type="text/css">
   <![CDATA[
    .fil4 {fill:#848688}
    .fil2 {fill:#363636;fill-rule:nonzero}
    .fil1 {fill:#525252;fill-rule:nonzero}
    .fil3 {fill:#D7373C;fill-rule:nonzero}
    .fil0 {fill:white;fill-rule:nonzero}
   ]]>
  </style>
 </defs>
<symbol id="RSS_2" viewBox="-11534.65 -12805.84 13229.16 13229.17">
 <path id="circle_2_" class="fil0" d="M-7989.86 -11035.81c0,-978.36 -794.03,-1770.03 -1774.76,-1770.03 -976,0 -1770.03,791.67 -1770.03,1770.03 0,976 794.03,1774.76 1770.03,1774.76 983.08,0 1774.76,-798.76 1774.76,-1774.76z"/>
 <path class="fil0" d="M-2845.19 -12706.59l-2332.47 0c-30.72,1663.69 -687.69,3218.68 -1862.2,4395.55 -1174.51,1176.87 -2724.76,1836.2 -4379,1866.92l0 2323.02c4700.39,-61.44 8509.87,-3878 8573.67,-8585.49l0 0z"/>
 <path class="fil0" d="M1694.51 -12706.59l-2327.75 0c-63.8,5929.26 -4865.82,10743.09 -10780.9,10806.9l0 2323.02c7198.3,-63.81 13044.85,-5917.44 13108.65,-13129.92l0 0z"/>
</symbol>
<symbol id="Ir_para_Web" viewBox="-10794.38 -12805.84 12487.71 13229.17">
 <polygon class="fil0" points="-3492.97,-5465.41 -3492.97,-12120.97 -1779.81,-10409.76 -536.9,-12805.84 366.51,-12337.55 -831.53,-10029.28 1480.65,-10029.28 "/>
 <path class="fil0" d="M1599.67 -6895.64c11.71,62.44 21.46,126.83 29.27,191.22 5.85,35.12 9.76,68.29 13.66,103.41 7.8,60.49 15.61,122.93 21.46,183.41 3.9,46.83 7.8,95.61 11.71,142.44 3.9,48.78 7.8,99.51 9.76,148.29 3.9,101.47 7.8,202.93 7.8,304.39 0,99.51 -1.95,197.07 -7.8,296.58 -1.95,62.44 -7.8,122.93 -13.66,185.36 -1.95,33.17 -3.9,64.39 -7.8,97.56 -7.8,78.05 -17.56,156.1 -27.32,234.14 -1.95,11.71 -3.9,25.37 -3.9,37.07 -11.71,81.95 -23.41,163.9 -39.02,245.85 0,5.85 -1.95,9.76 -1.95,15.61 0,0 0,0 0,0 -491.7,2737.54 -2766.81,4856.55 -5580.45,5108.25 -3.9,0 -7.8,0 -11.71,0 -85.85,7.8 -171.71,13.66 -259.51,17.56 -95.62,3.93 -193.18,7.83 -290.74,7.83 -97.56,0 -195.12,-1.95 -292.68,-7.8 -87.8,-3.9 -173.66,-9.76 -259.51,-17.56 -3.9,0 -7.8,0 -11.71,0 -2813.64,-251.71 -5088.74,-2370.71 -5580.45,-5108.25 0,0 0,0 0,0 -1.95,-5.85 -1.95,-9.76 -1.95,-15.61 -13.66,-81.95 -27.32,-161.95 -39.02,-245.85 -1.95,-11.71 -3.9,-25.37 -3.9,-37.07 -9.76,-78.05 -19.51,-156.1 -27.32,-234.14 -1.95,-33.17 -3.9,-64.39 -7.8,-97.56 -3.9,-60.49 -9.76,-122.93 -13.66,-185.36 -3.9,-99.54 -5.85,-197.1 -5.85,-296.61 0,-97.56 1.95,-197.07 7.8,-294.63 3.9,-64.39 7.8,-128.78 13.66,-193.17 1.95,-29.27 3.9,-58.54 5.85,-87.8 7.8,-81.95 17.56,-161.95 27.32,-241.95 1.95,-9.76 1.95,-19.51 3.9,-27.32 11.71,-87.8 25.37,-173.66 40.98,-259.51 0,-1.95 0,-3.9 0,-3.9l0 0c460.48,-2558.03 2476.08,-4573.63 5034.11,-5034.11 0,0 0,0 0,-1.95 19.51,-3.9 39.02,-5.85 56.58,-9.76 58.54,-9.76 117.07,-19.51 175.61,-27.32 40.98,-5.85 80,-9.76 120.97,-15.61 54.63,-7.8 109.27,-13.66 163.9,-19.51 52.68,-5.85 107.32,-7.8 161.95,-11.71 42.93,-3.9 85.85,-7.8 130.73,-7.8 99.52,-3.9 199.03,-5.85 300.49,-5.85 5.85,0 13.66,0 17.56,0l0 58.54 0 1397.06c-5.85,0 -11.71,-1.95 -17.56,-1.95 -279.02,0 -552.19,25.37 -819.51,72.19 -204.88,628.29 -394.14,1455.6 -511.22,2476.08 431.23,-27.32 876.1,-42.93 1330.73,-42.93 5.85,0 13.66,0 17.56,0l0 831.21c-5.85,0 -11.71,0 -17.56,0 -497.56,0 -967.8,17.56 -1406.82,46.83 -29.27,439.02 -46.83,907.31 -46.83,1404.87 0,499.51 17.56,967.8 46.83,1406.82 439.03,29.27 909.27,46.83 1406.82,46.83 497.56,0 965.85,-17.56 1402.92,-46.83 1.95,-25.36 3.9,-48.78 5.85,-74.14 126.83,-44.88 247.8,-117.07 351.22,-210.73l511.22 -470.24c-7.8,230.24 -17.56,454.63 -31.22,679.02 1022.43,-117.07 1849.74,-306.34 2478.03,-511.22 46.83,-267.32 72.19,-540.48 72.19,-819.51 0,-279.02 -27.32,-550.24 -72.19,-817.55 -195.12,-64.39 -407.8,-124.88 -641.95,-185.36l489.75 -448.78c0,0 0,0 0,0l1155.11 -1059.5c193.17,442.92 337.56,913.16 425.36,1400.97 0,0 0,0 1.95,0 -1.94,13.65 0.01,25.35 1.96,37.06zm-7916.04 5523.86c-177.56,-667.31 -316.1,-1439.99 -405.85,-2279.01 -840.97,-87.8 -1611.7,-226.34 -2279.01,-403.9 487.81,1221.46 1463.41,2197.06 2684.86,2682.91zm0 -8901.4c-1221.45,485.85 -2197.06,1461.45 -2684.86,2684.86 669.26,-177.56 1439.99,-316.1 2279.01,-403.9 89.76,-840.97 228.29,-1611.69 405.85,-2280.96zm-476.09 3121.93c-1022.43,117.07 -1847.79,306.34 -2476.08,511.22 -46.83,265.36 -72.19,538.53 -72.19,817.55 0,279.02 25.37,552.19 72.19,819.51 628.29,204.88 1455.6,394.14 2476.08,511.22 -27.32,-431.22 -40.98,-876.09 -40.98,-1330.72 0,-454.64 15.61,-899.51 40.98,-1328.78zm2241.93 3611.68c-454.63,0 -899.51,-15.61 -1328.77,-40.98 117.07,1022.43 306.34,1847.79 511.22,2476.08 265.36,46.83 538.53,72.19 819.51,72.19 279.02,0 550.24,-25.37 815.6,-70.24 204.88,-628.29 394.14,-1453.65 511.22,-2478.03 -431.22,27.32 -874.15,40.98 -1328.78,40.98zm2169.74 -111.22c-87.8,840.97 -226.34,1611.7 -403.9,2279.01 1221.45,-485.85 2197.06,-1461.45 2684.86,-2684.86 -669.26,179.51 -1439.99,316.1 -2280.96,405.85z"/>
</symbol>
 <g id="Camada_x0020_1">
  <metadata id="CorelCorpID_0Corel-Layer"/>
 </g>
 <g id="Camada_x0020_1_0">
  <metadata id="CorelCorpID_1Corel-Layer"/>
  <g id="_2409881696">
   <polygon class="fil1" points="2586.38,-0.01 3160.59,846.67 -0,846.67 -0,-0.01 "/>
   <polygon class="fil2" points="3061.28,687.64 3098.86,743.05 -0,734 -0,684.04 "/>
   <polygon class="fil3" points="-0,684.04 3386.67,688.56 3005.62,141.91 -0,137.83 "/>
   <polygon class="fil4" points="3061.28,687.64 3293.85,686.98 3333.13,743.84 3098.86,743.05 "/>
  </g>
 </g>
</svg>
