<?xml version="1.0" encoding="UTF-8"?>
<!DOCTYPE svg PUBLIC "-//W3C//DTD SVG 1.1//EN" "http://www.w3.org/Graphics/SVG/1.1/DTD/svg11.dtd">
<!-- Creator: CorelDRAW -->
<svg xmlns="http://www.w3.org/2000/svg" xml:space="preserve" width="60.96mm" height="16.0858mm" version="1.1" style="shape-rendering:geometricPrecision; text-rendering:geometricPrecision; image-rendering:optimizeQuality; fill-rule:evenodd; clip-rule:evenodd"
viewBox="0 0 6096 1608.58"
 xmlns:xlink="http://www.w3.org/1999/xlink"
 xmlns:xodm="http://www.corel.com/coreldraw/odm/2003">
 <defs>
  <style type="text/css">
   <![CDATA[
    .fil0 {fill:#028DCF}
    .fil1 {fill:#00A859;fill-rule:nonzero}
    .fil2 {fill:#03753C;fill-rule:nonzero}
   ]]>
  </style>
 </defs>
 <g id="Camada_x0020_1">
  <metadata id="CorelCorpID_0Corel-Layer"/>
  <g id="_1909917674976">
   <path class="fil0" d="M64.8 1078.93l5976.77 0c30.06,-0.01 54.43,24.13 54.43,53.9l0 421.9c0,29.76 -24.37,53.9 -54.43,53.9l-5976.77 0.01c-30.05,-0.01 -54.42,-24.15 -54.42,-53.92l-0.01 -421.88c0.01,-29.78 24.38,-53.92 54.44,-53.92l-0.01 0.01z"/>
   <path class="fil1" d="M-0 525.29c0,-68.56 16.07,-130.06 48.2,-184.51 32.13,-54.45 75.75,-96.96 130.88,-127.55 55.14,-30.58 115.51,-45.87 181.11,-45.87 75.09,0 141.88,18.32 200.4,54.95 58.51,36.63 100.96,88.55 127.34,155.78l-139.01 0c-18.27,-36.97 -43.63,-64.54 -76.1,-82.68 -32.47,-18.15 -70.01,-27.22 -112.63,-27.22 -46.67,0 -88.27,10.41 -124.79,31.25 -36.54,20.83 -65.1,50.75 -85.74,89.73 -20.63,39 -30.95,84.36 -30.95,136.12 0,51.76 10.32,97.14 30.95,136.12 20.64,38.99 49.2,69.06 85.74,90.24 36.52,21.17 78.12,31.76 124.79,31.76 42.62,0 80.16,-9.07 112.63,-27.23 32.47,-18.14 57.83,-45.7 76.1,-82.67l139.01 0c-26.38,67.21 -68.83,118.97 -127.34,155.28 -58.52,36.29 -125.31,54.44 -200.4,54.44 -66.28,0 -126.82,-15.3 -181.61,-45.87 -54.79,-30.59 -98.25,-73.11 -130.38,-127.56 -32.13,-54.44 -48.2,-115.95 -48.2,-184.51zm938.55 -348.86l0 700.75 -115.68 0 0 -700.75 115.68 0zm382.51 0c75.09,0 140.87,14.29 197.35,42.85 56.48,28.57 100.1,69.58 130.89,123.01 30.78,53.44 46.16,115.78 46.16,187.03 0,71.25 -15.38,133.09 -46.16,185.53 -30.79,52.43 -74.41,92.59 -130.89,120.49 -56.48,27.89 -122.26,41.84 -197.35,41.84l-230.32 0 0 -700.75 230.32 0zm0 606.98c82.53,0 145.77,-22.18 189.75,-66.55 43.96,-44.36 65.94,-106.87 65.94,-187.54 0,-81.32 -21.98,-144.85 -65.94,-190.56 -43.98,-45.7 -107.22,-68.56 -189.75,-68.56l-114.65 0 0 513.21 114.65 0zm914.18 -49.41l-295.25 0 -50.74 143.18 -120.74 0 252.65 -701.76 133.93 0 252.65 701.76 -121.76 0 -50.74 -143.18zm-32.46 -93.77l-114.65 -325.66 -115.67 325.66 230.32 0zm544.85 -463.8c75.09,0 140.88,14.29 197.35,42.85 56.48,28.57 100.11,69.58 130.89,123.01 30.78,53.44 46.17,115.78 46.17,187.03 0,71.25 -15.39,133.09 -46.17,185.53 -30.78,52.43 -74.41,92.59 -130.89,120.49 -56.47,27.89 -122.26,41.84 -197.35,41.84l-230.32 0 0 -700.75 230.32 0zm0 606.98c82.53,0 145.77,-22.18 189.75,-66.55 43.96,-44.36 65.95,-106.87 65.95,-187.54 0,-81.32 -21.99,-144.85 -65.95,-190.56 -43.98,-45.7 -107.22,-68.56 -189.75,-68.56l-114.64 0 0 513.21 114.64 0zm914.19 -49.41l-295.25 0 -50.74 143.18 -120.74 0 252.64 -701.76 133.94 0 252.64 701.76 -121.76 0 -50.73 -143.18zm-32.46 -93.77l-114.66 -325.66 -115.67 325.66 230.33 0zm-280.04 -522.27c5.41,-38.99 18.25,-68.4 38.55,-88.23 20.29,-19.83 45.66,-29.74 76.09,-29.74 12.86,0 24.02,2.01 33.49,6.04 9.47,4.04 20.96,10.09 34.5,18.16 10.15,6.71 18.77,11.76 25.87,15.12 7.1,3.35 15.05,5.04 23.85,5.04 11.49,0 21.14,-3.52 28.92,-10.59 7.78,-7.06 12.68,-17.64 14.7,-31.76l64.94 0c-5.41,38.99 -18.27,68.4 -38.55,88.23 -20.29,19.82 -45.66,29.74 -76.11,29.74 -12.84,0 -24.35,-2.19 -34.49,-6.56 -10.15,-4.36 -21.31,-10.58 -33.48,-18.65 -12.17,-7.39 -21.48,-12.6 -27.9,-15.63 -6.43,-3.02 -13.7,-4.54 -21.82,-4.54 -11.49,0 -21.14,3.71 -28.92,11.1 -7.78,7.39 -12.68,18.14 -14.72,32.27l-64.92 0zm916.21 766.27c-65.61,0 -125.98,-15.28 -181.11,-45.87 -55.14,-30.58 -98.76,-73.27 -130.89,-128.05 -32.13,-54.78 -48.2,-116.46 -48.2,-185.02 0,-68.56 16.07,-130.06 48.2,-184.51 32.13,-54.45 75.75,-96.96 130.89,-127.55 55.13,-30.58 115.5,-45.87 181.11,-45.87 66.28,0 126.99,15.29 182.12,45.87 55.14,30.59 98.6,73.1 130.39,127.55 31.79,54.45 47.69,115.95 47.69,184.51 0,68.56 -15.9,130.24 -47.69,185.02 -31.79,54.78 -75.25,97.47 -130.39,128.05 -55.13,30.59 -115.84,45.87 -182.12,45.87zm0 -99.81c46.67,0 88.28,-10.58 124.8,-31.76 36.53,-21.17 65.1,-51.43 85.74,-90.75 20.62,-39.32 30.95,-84.86 30.95,-136.62 0,-51.76 -10.33,-97.12 -30.95,-136.12 -20.64,-38.98 -49.21,-68.9 -85.74,-89.73 -36.52,-20.84 -78.13,-31.25 -124.8,-31.25 -46.68,0 -88.27,10.41 -124.8,31.25 -36.53,20.83 -65.1,50.75 -85.74,89.73 -20.63,39 -30.94,84.36 -30.94,136.12 0,51.76 10.31,97.3 30.94,136.62 20.64,39.32 49.21,69.58 85.74,90.75 36.53,21.18 78.12,31.76 124.8,31.76z"/>
   <path class="fil2" d="M5285.25 403.3c0,43.01 -9.98,82.17 -29.94,117.45 -19.95,35.29 -50.06,63.53 -90.3,84.7 -40.25,21.17 -89.46,31.77 -147.63,31.77l-98.41 0 0 239.96 -198.88 0 0 -710.83 297.29 0c57.5,0 106.36,10.08 146.61,30.25 40.26,20.17 70.52,48.06 90.82,83.69 20.29,35.62 30.44,76.63 30.44,123.01zm-287.14 76.63c56.14,0 84.21,-25.55 84.21,-76.63 0,-51.76 -28.07,-77.65 -84.21,-77.65l-79.14 0 0 154.28 79.14 0zm823.88 -79.66c-11.5,-18.82 -27.23,-33.28 -47.19,-43.35 -19.95,-10.09 -43.46,-15.13 -70.51,-15.13 -50.06,0 -89.46,16.13 -118.21,48.39 -28.74,32.27 -43.12,75.62 -43.12,130.07 0,61.17 15.4,107.72 46.17,139.65 30.78,31.93 75.59,47.89 134.43,47.89 69.68,0 119.4,-31.25 149.16,-93.77l-199.88 0 0 -142.16 371.36 0 0 191.57c-15.57,37.64 -38.39,72.92 -68.49,105.87 -30.11,32.92 -68.15,59.99 -114.15,81.15 -46,21.19 -98.43,31.77 -157.27,31.77 -71.7,0 -135.12,-15.29 -190.25,-45.88 -55.12,-30.58 -97.74,-73.26 -127.84,-128.05 -30.11,-54.78 -45.15,-117.47 -45.15,-188.04 0,-69.9 15.04,-132.25 45.15,-187.03 30.1,-54.78 72.54,-97.47 127.33,-128.05 54.8,-30.59 118.04,-45.88 189.75,-45.88 89.96,0 164.36,21.51 223.21,64.54 58.86,43.01 95.38,101.82 109.59,176.44l-214.09 0z"/>
  </g>
 </g>
</svg>
